<svg xmlns="http://www.w3.org/2000/svg" viewBox="0 0 48 48" width="48" height="48"><g fill="none" stroke="#7A4A22" stroke-width="2" stroke-linejoin="round" stroke-linecap="round">
<path d="M7 24a17 17 0 1 0 34 0a17 17 0 1 0 -34 0Z M19 24a5 5 0 1 0 10 0a5 5 0 1 0 -10 0Z" fill="#E9B070" fill-rule="evenodd"/>
<path d="M10 24a14 14 0 1 0 28 0a14 14 0 1 0 -28 0Z M18.5 24a5.5 5.5 0 1 0 11.0 0a5.5 5.5 0 1 0 -11.0 0Z" fill="#F4A3B5" fill-rule="evenodd" stroke-width="1.6"/>
<path d="M32.7 28.7L35.9 26.9" stroke="#FFFFFF" stroke-width="2.4"/><path d="M26.2 33.4L29.4 35.2" stroke="#7FB8D8" stroke-width="2.4"/><path d="M17.8 34.9L21.0 33.1" stroke="#FFD95A" stroke-width="2.4"/><path d="M12.1 26.9L15.3 28.7" stroke="#8DB580" stroke-width="2.4"/><path d="M12.4 20.3L15.6 18.5" stroke="#FFFFFF" stroke-width="2.4"/><path d="M18.6 12.8L21.8 14.6" stroke="#7FB8D8" stroke-width="2.4"/><path d="M27.0 14.9L30.2 13.1" stroke="#FFD95A" stroke-width="2.4"/><path d="M32.7 19.3L35.9 21.1" stroke="#8DB580" stroke-width="2.4"/></g></svg>