<svg xmlns="http://www.w3.org/2000/svg" style="display:none"><symbol id="ei-hot-coffee" viewBox="0 0 48 48"><g fill="none" stroke="#7A4A22" stroke-width="2" stroke-linejoin="round" stroke-linecap="round">
<path d="M17 7Q15 10 17 13M24 5Q22 8 24 11M31 7Q29 10 31 13" stroke="#C79A6B" stroke-width="1.8"/>
<path d="M34 24H37Q41 24 41 28Q41 33 35.5 33"/>
<path d="M10 20V30Q10 40 20 40H24Q34 40 34 30V20Z" fill="#FFF4E0"/>
<ellipse cx="22" cy="20" rx="12" ry="3.5" fill="#9C5E34"/>
<path d="M7 43.5H37"/></g></symbol><symbol id="ei-matcha" viewBox="0 0 48 48"><g fill="none" stroke="#7A4A22" stroke-width="2" stroke-linejoin="round" stroke-linecap="round">
<path d="M18 40V43.5H30V40"/>
<path d="M7 22H41Q41 38 30 40H18Q7 38 7 22Z" fill="#FFF4E0"/>
<ellipse cx="24" cy="22" rx="17" ry="4" fill="#9CC48A"/>
<path d="M17 22.5Q20 21 23 22.5M26 22.8Q29 21.5 32 22.8" stroke="#D6EBC8" stroke-width="1.5"/>
<path d="M20 17Q22 7 34 7Q34 17 22 18Z" fill="#8DB580"/>
<path d="M22 16L30 10" stroke-width="1.5"/></g></symbol><symbol id="ei-iced-coffee" viewBox="0 0 48 48"><g fill="none" stroke="#7A4A22" stroke-width="2" stroke-linejoin="round" stroke-linecap="round">
<path d="M13 14H35L32 42H16Z" fill="#F3DCC0"/>
<path d="M13.9 24H34.1L32 42H16Z" fill="#8A5230"/>
<path d="M27 10L31.5 2.5" stroke="#E07A5F" stroke-width="2.6"/>
<rect x="10.5" y="10" width="27" height="4.5" rx="2.2" fill="#FFF4E0"/>
<g stroke="none" fill="#FFFFFF" opacity=".6">
<rect x="18" y="28" width="6" height="6" rx="1.5" transform="rotate(-12 21 31)"/>
<rect x="25" y="33" width="5" height="5" rx="1.5" transform="rotate(10 27.5 35.5)"/></g></g></symbol><symbol id="ei-iced-tea" viewBox="0 0 48 48"><g fill="none" stroke="#7A4A22" stroke-width="2" stroke-linejoin="round" stroke-linecap="round">
<path d="M14 9H34L32 42H16Z" fill="#EAF6FB"/>
<path d="M14.6 17H33.4L32 42H16Z" fill="#7FB8D8"/>
<g stroke="none" fill="#FFFFFF" opacity=".65">
<rect x="18.5" y="21" width="6" height="6" rx="1.5" transform="rotate(-10 21.5 24)"/>
<rect x="25" y="29" width="5.5" height="5.5" rx="1.5" transform="rotate(12 27.7 31.7)"/></g>
<circle cx="36" cy="10" r="5.5" fill="#FFD95A"/>
<path d="M36 5V15M31 10H41" stroke-width="1.3"/></g></symbol><symbol id="ei-waffle" viewBox="0 0 48 48"><g fill="none" stroke="#7A4A22" stroke-width="2" stroke-linejoin="round" stroke-linecap="round">
<rect x="8" y="8" width="32" height="32" rx="6" fill="#F2C26B"/>
<path d="M18.7 8V40M29.3 8V40M8 18.7H40M8 29.3H40" stroke-width="1.7"/>
<rect x="19" y="19" width="10.5" height="10.5" rx="2.4" fill="#FFF1A8"/></g></symbol><symbol id="ei-croissant" viewBox="0 0 48 48"><g fill="none" stroke="#7A4A22" stroke-width="2" stroke-linejoin="round" stroke-linecap="round">
<g transform="translate(0 3)">
<path d="M5 32Q5 26 11 22Q15 28 14 34Q9 36 5 32Z" fill="#E0A04F"/>
<path d="M43 32Q43 26 37 22Q33 28 34 34Q39 36 43 32Z" fill="#E0A04F"/>
<path d="M11 22Q14 14 21 14Q23 22 21 34Q17 36 14 34Q15 28 11 22Z" fill="#EDB664"/>
<path d="M37 22Q34 14 27 14Q25 22 27 34Q31 36 34 34Q33 28 37 22Z" fill="#EDB664"/>
<path d="M21 14Q24 11 27 14Q29 24 27 34Q24 37 21 34Q19 24 21 14Z" fill="#F6C877"/></g></g></symbol><symbol id="ei-cinnamon-roll" viewBox="0 0 48 48"><g fill="none" stroke="#7A4A22" stroke-width="2" stroke-linejoin="round" stroke-linecap="round">
<circle cx="24" cy="24" r="17" fill="#F0C48A"/>
<path d="M25.2 24.0 L25.5 24.4 L25.6 24.9 L25.6 25.5 L25.3 26.1 L24.9 26.6 L24.2 27.1 L23.4 27.3 L22.5 27.4 L21.5 27.1 L20.5 26.6 L19.7 25.8 L19.1 24.7 L18.8 23.4 L18.8 22.0 L19.2 20.6 L19.9 19.3 L21.1 18.2 L22.6 17.3 L24.3 16.9 L26.1 16.9 L28.0 17.3 L29.7 18.3 L31.2 19.7 L32.4 21.6 L33.0 23.7 L33.1 26.0 L32.6 28.3 L31.5 30.5 L29.8 32.4 L27.7 33.9 L25.1 34.8 L22.4 35.1 L19.6 34.6 L16.9 33.4 L14.5 31.6 L12.7 29.1 L11.4 26.2 L11.0 23.0 L11.3 19.7 L12.5 16.5 L14.5 13.7 L17.2 11.4 L20.4 9.8 L24.1 9.1 L27.8 9.2" stroke="#A8683A" stroke-width="2"/>
<path d="M13 19Q18 14 23 19T33 19M15 30Q20 25 25 30T35 29" stroke="#FFF8EC" stroke-width="3.2"/></g></symbol><symbol id="ei-toast" viewBox="0 0 48 48"><g fill="none" stroke="#7A4A22" stroke-width="2" stroke-linejoin="round" stroke-linecap="round">
<path d="M14 40Q10 40 10 36L10 24Q6 22 6 17Q6 9 16 8Q24 6.5 32 8Q42 9 42 17Q42 22 38 24L38 36Q38 40 34 40Z" fill="#D9974A"/>
<path d="M16.5 36.5Q14 36.5 14 34L14 22.5Q10.5 20.5 10.5 17Q10.5 12 17 11.2Q24 10 31 11.2Q37.5 12 37.5 17Q37.5 20.5 34 22.5L34 34Q34 36.5 31.5 36.5Z" fill="#F7D9A0" stroke="none"/>
<g stroke="none" fill="#E4B26C"><circle cx="18" cy="16" r="1.2"/><circle cx="30.5" cy="15" r="1"/><circle cx="17" cy="30" r="1"/><circle cx="31" cy="31" r="1.2"/></g>
<rect x="19" y="20" width="10.5" height="8" rx="2" fill="#FFD95A" stroke-width="1.6"/>
<path d="M21.5 22.5H25" stroke="#FFF3B8" stroke-width="1.6"/></g></symbol><symbol id="ei-syrup" viewBox="0 0 48 48"><g fill="none" stroke="#7A4A22" stroke-width="2" stroke-linejoin="round" stroke-linecap="round">
<rect x="19" y="4.5" width="10" height="5.5" rx="1.8" fill="#A9693A"/>
<path d="M20 10V16Q12 20 12 28V38Q12 42 16 42H32Q36 42 36 38V28Q36 20 28 16V10Z" fill="#FBE9EE"/>
<path d="M12 27H36V38Q36 42 32 42H16Q12 42 12 38Z" fill="#E98FA3"/>
<rect x="17" y="30" width="14" height="8" rx="2" fill="#FFF4E0" stroke-width="1.5"/>
<path d="M24 32.2Q22.2 34.4 24 36Q25.8 34.4 24 32.2Z" fill="#E98FA3" stroke="none"/></g></symbol><symbol id="ei-muffin" viewBox="0 0 48 48"><g fill="none" stroke="#7A4A22" stroke-width="2" stroke-linejoin="round" stroke-linecap="round">
<path d="M10 26H38L35.5 40.5Q35.2 42 33.5 42H14.5Q12.8 42 12.5 40.5Z" fill="#E9C98B"/>
<path d="M18 27L19 41.5M24 27V41.5M30 27L29 41.5" stroke-width="1.4"/>
<path d="M8 27Q6 10 24 9Q42 10 40 27Z" fill="#D9974A"/>
<g stroke="none" fill="#7A4A22"><circle cx="16" cy="19" r="1.5"/><circle cx="25" cy="15" r="1.5"/><circle cx="31" cy="21" r="1.5"/><circle cx="22" cy="23" r="1.4"/></g></g></symbol><symbol id="ei-orange" viewBox="0 0 48 48"><g fill="none" stroke="#7A4A22" stroke-width="2" stroke-linejoin="round" stroke-linecap="round">
<circle cx="24" cy="27" r="15" fill="#F5A03C"/>
<path d="M25 12Q29 5 37 7Q35 15 25 12Z" fill="#8DB580"/>
<path d="M15 26Q16 20 21 18" stroke="#FBC77E" stroke-width="2.2"/></g></symbol><symbol id="ei-donut" viewBox="0 0 48 48"><g fill="none" stroke="#7A4A22" stroke-width="2" stroke-linejoin="round" stroke-linecap="round">
<path d="M7 24a17 17 0 1 0 34 0a17 17 0 1 0 -34 0Z M19 24a5 5 0 1 0 10 0a5 5 0 1 0 -10 0Z" fill="#E9B070" fill-rule="evenodd"/>
<path d="M10 24a14 14 0 1 0 28 0a14 14 0 1 0 -28 0Z M18.5 24a5.5 5.5 0 1 0 11.0 0a5.5 5.5 0 1 0 -11.0 0Z" fill="#F4A3B5" fill-rule="evenodd" stroke-width="1.6"/>
<path d="M32.7 28.7L35.9 26.9" stroke="#FFFFFF" stroke-width="2.4"/><path d="M26.2 33.4L29.4 35.2" stroke="#7FB8D8" stroke-width="2.4"/><path d="M17.8 34.9L21.0 33.1" stroke="#FFD95A" stroke-width="2.4"/><path d="M12.1 26.9L15.3 28.7" stroke="#8DB580" stroke-width="2.4"/><path d="M12.4 20.3L15.6 18.5" stroke="#FFFFFF" stroke-width="2.4"/><path d="M18.6 12.8L21.8 14.6" stroke="#7FB8D8" stroke-width="2.4"/><path d="M27.0 14.9L30.2 13.1" stroke="#FFD95A" stroke-width="2.4"/><path d="M32.7 19.3L35.9 21.1" stroke="#8DB580" stroke-width="2.4"/></g></symbol><symbol id="ei-water" viewBox="0 0 48 48"><g fill="none" stroke="#7A4A22" stroke-width="2" stroke-linejoin="round" stroke-linecap="round">
<path d="M24 5Q37 20 37 29A13 13 0 0 1 11 29Q11 20 24 5Z" fill="#8CC8E8"/>
<path d="M17.5 30Q17.5 25 20.5 21" stroke="#FFFFFF" stroke-width="2.4"/></g></symbol><symbol id="ei-flower" viewBox="0 0 48 48"><g fill="none" stroke="#7A4A22" stroke-width="2" stroke-linejoin="round" stroke-linecap="round">
<ellipse cx="24" cy="13.5" rx="5.5" ry="8" fill="#F7B955" transform="rotate(0 24 24)"/><ellipse cx="24" cy="13.5" rx="5.5" ry="8" fill="#F7B955" transform="rotate(60 24 24)"/><ellipse cx="24" cy="13.5" rx="5.5" ry="8" fill="#F7B955" transform="rotate(120 24 24)"/><ellipse cx="24" cy="13.5" rx="5.5" ry="8" fill="#F7B955" transform="rotate(180 24 24)"/><ellipse cx="24" cy="13.5" rx="5.5" ry="8" fill="#F7B955" transform="rotate(240 24 24)"/><ellipse cx="24" cy="13.5" rx="5.5" ry="8" fill="#F7B955" transform="rotate(300 24 24)"/>
<circle cx="24" cy="24" r="5.5" fill="#F2874A"/></g></symbol><symbol id="ei-pastry-box" viewBox="0 0 48 48"><g fill="none" stroke="#7A4A22" stroke-width="2" stroke-linejoin="round" stroke-linecap="round">
<rect x="8" y="21" width="32" height="20" rx="2.5" fill="#E9C98B"/>
<rect x="6" y="14" width="36" height="8" rx="2.5" fill="#F4DDB8"/>
<rect x="21" y="14" width="6" height="27" fill="#E0685A" stroke-width="1.6"/>
<path d="M24 14Q15 4 13 10Q13 15 24 14ZM24 14Q33 4 35 10Q35 15 24 14Z" fill="#E0685A" stroke-width="1.8"/></g></symbol></svg>